<svg xmlns="http://www.w3.org/2000/svg" viewBox="0 0 24 24" fill="currentColor" aria-hidden="true">
  <path d="M12 5a1 1 0 0 1-1-1V2a1 1 0 1 1 2 0v2a1 1 0 0 1-1 1Zm0 14a1 1 0 0 1 1 1v2a1 1 0 1 1-2 0v-2a1 1 0 0 1 1-1Zm7-7a1 1 0 0 1 1-1h2a1 1 0 1 1 0 2h-2a1 1 0 0 1-1-1Zm-16 0a1 1 0 0 1-1-1H1a1 1 0 1 1 0 2h2a1 1 0 0 1 1-1Zm12.95 6.536a1 1 0 0 1 1.414 0l1.414 1.415a1 1 0 0 1-1.414 1.414L15.95 19.95a1 1 0 0 1 0-1.414Zm-11.314 0a1 1 0 0 1 0 1.414L3.222 20.95a1 1 0 0 1-1.414-1.414L3.222 18.12a1 1 0 0 1 1.414 0ZM18.364 3.222a1 1 0 0 1 1.414 1.414L18.364 6.05a1 1 0 1 1-1.414-1.414ZM6.05 4.636a1 1 0 0 1-1.414-1.414L6.05 1.807A1 1 0 0 1 7.464 3.22ZM12 7a5 5 0 1 1 0 10 5 5 0 0 1 0-10Z"/>
</svg>
